<?xml version="1.0" encoding="utf-8"?>
<!-- Generator: Adobe Illustrator 18.1.1, SVG Export Plug-In . SVG Version: 6.00 Build 0)  -->
<svg version="1.1" id="Layer_1" xmlns="http://www.w3.org/2000/svg" xmlns:xlink="http://www.w3.org/1999/xlink" x="0px" y="0px"
	 viewBox="0 0 610 50.7" enable-background="new 0 0 610 50.7" xml:space="preserve">
<g id="Shape_2">
	<g>
		<path fill-rule="evenodd" clip-rule="evenodd" fill="#F15B46" d="M607.8,18.1l-0.1,0l0.1-0.9l0-0.5l0-0.4l0-0.6l-0.3,0.3l-0.3-0.8
			l-0.9-0.9l-0.4-1.1l-0.4-0.2l-0.1,0.2l-0.3-0.4l-0.2-0.8l-0.3-0.4l-0.2-0.6l-0.5-0.3l-0.3-0.4l-0.6-0.1l-0.5-0.5l-0.2-0.6L602.2,8
			l-0.3-0.2L601.7,7l0-0.7l-0.2-0.5L601,5.3l-0.2,0l-0.3,0.2l-0.4-0.8L600.1,4l-0.2-0.5l0-0.4l-0.3-0.1l0-0.8L599.2,2L599,2.2
			l-0.1,0.3l0,0.6l-0.3,0.4l0,0.4l-0.1,0.6l-0.2,0.7l0,0.6l0.1,0.4l-0.2,0.4l0,0.9L598,8l-0.1,0.4l-0.4,0.3l-0.7-0.3l-0.5-0.5
			l-0.5-0.1l-0.6-0.4l-0.4-0.2l-1-0.7l-0.5-0.2l0.4-1.3l0-0.4l0.4-0.1l0.4-0.8l-0.3-0.4l-0.2,0.1L593.6,3l-0.4,0.6l-0.3-0.2
			l-0.6-0.1l-0.7-0.2L591.3,3l-0.4-0.3l-0.8-0.1l0.5,0.3l0.2,0.4l-0.2,0.2L590,3.8l-0.6-0.1l-0.4,0.3l-0.2,0.3l-0.2,0.3l0.2,0.5
			l-0.5,0.2l-0.1,0.2l-0.3,0.4l0.3,0.3l0,0.4l-0.3-0.1l-0.5-0.2l-0.3,0.2L587,6.8l-0.1,0.1l0-0.8L586.6,6l-0.3-0.4l-0.3-0.2
			l-0.4,0.1l-0.2,0.4L585,6.2l-0.3-0.2l-0.4,0.3L584.1,7l-0.3,0.2l0.3,0.5L584,8l-0.6,0.2l-0.3-0.1l-0.1,0.3l0.3,0.5l-0.1,0.5
			l-0.4-0.7l-0.2-0.4l-0.3,0.3L582,9l0.1,0.5l0.2,0.5l-0.6,0.7l-0.2,0.7l-0.4,0.3l-0.4,0.1l-0.5,0.3l-0.5,0.1l-0.3,0.6l-0.5-0.2
			l-0.5,0.6l-0.5-0.1l-0.5,0.4l-0.3,0.5l-0.3,0l-0.3,0.6l-0.2,0.4l-0.4-0.3l0,0.5l-0.1,0.3l0.2,0.6l-0.1,0.6l0.1,0.4l0.4,0.6
			l0.4,0.2l-0.1,0.7l-0.5-0.3l0.1,0.4l-0.3-0.1l0.4,0.7l0.3,0.4l0.4,0.8l0.4,0.5l0.6,0.3l0,0.8l0.3,0.6l0.8,1.1l0,0.6l0.1,0.7
			l-0.3,0.3l0.2,0.5l0.4,0.2l0.6,0.3l1.4-0.3l0.8-0.5l0.3-0.3l0.6-0.3l0.6-0.1l0.3,0.3l0.5-0.3l0.3,0l0.5-0.3l0.1-0.6l0.1-0.2l1-0.7
			l0.7,0.1l1.3-0.6l0.3-0.3l0.7-0.2l0.7,0.1l0.3-0.1l0.4,0.2l0.4,0.3l0.5,0l0.5,0.1l0.4,0.7l0.3,0.1l0.1,0.3l0.5,0.9l0.6,0.3
			l0.1-0.3l0.2-0.4L595,24l0.5-0.3l-0.1-0.4l0.1-0.2l0.4-0.2l-0.1,0.7l-0.4,1.1l-0.2,0.4l0.7,0l0.1-0.8l0.2,0.3l0,0.6l-0.2,0.5
			l0.3,0l0.4-0.2l0.4,0.7l0.2,0.6l0.1,0.5l1,0.9l0.8,0l0.5,0.3l0.4,0.3l0.7-0.5l0.1-0.3l0.1,0.4l0.2,0l0.6,0.5l0.6-0.3l0.6-0.5
			l0.4-0.1L604,28l0.6-0.3l0.2-0.5V27l0.1-0.7l0.4-0.8l0.2-0.7l0.2-0.3l0.2-0.5l0.5-0.7l0.3-0.2l0.3-0.5l0.3-0.9l0-0.8l0.3-0.3
			l0.1-0.4l0.2-0.3L607.8,18.1z M602.9,30.5l-0.5,0.2l-0.4,0.2l-0.5-0.3l-0.4-0.2l-0.5,0l0,0.5l0.4,0.6l0,0.8l0.3,0.6l0.3,0.4l0.5,0
			l0.1-0.4l0.3-0.2l0.3,0l0-0.5l0.2-0.4l0-1L602.9,30.5z"/>
	</g>
</g>
<g id="Shape_2_1_">
	<g>
		<path fill-rule="evenodd" clip-rule="evenodd" fill="#004563" d="M4,2.1L2.7,17h1.9c0.9-3.5,0.9-9.7,7.5-9.7h4.7v38.1l-7,0.9v2.3
			h25.5v-2.3l-1.9-0.1c-4.9-0.8-5.1-0.4-5.1-4.2V7.4h4.8c6.6,0,6.7,6.2,7.6,9.7h1.8L41.2,2.1H4z M69.6,4.6l0.8,0.1
			c4.9,0.6,5.4,0.4,5.4,4.2v13.4H60.8V5.5L67,4.6V2.1H43.2v2.5l1.5,0.1c4.9,0.5,5.7,0.4,5.7,4.2v36.6l-7.2,0.9v2.3H67v-2.3l-0.8-0.1
			c-4.9-0.6-5.4-0.4-5.4-4.2V26.7h14.9v18.8l-6.2,0.9v2.3h23.7v-2.3l-0.9-0.1c-4.9-0.5-5.2-0.4-5.2-4.2V5.5l6.2-0.9V2.1H69.6V4.6z
			 M120,44c-7.7,0-7.3-0.7-7.3-6.2v-11h8.1c2.4,0,5.3,0,5.2,6.2h1.8L129,17h-1.9c-0.4,2.6-0.9,5.3-5.4,5.3h-9V6.5h10.9
			c5.7,0,6.6,3.5,6.7,7h1.8l1-11.4h-38v2.5L96,4.7c4.9,0.5,5.2,0.4,5.2,4.2v36.6l-6.2,0.9v2.3h37.8l1.2-13.2h-1.8
			C130.7,41.7,128.7,44,120,44z M188.6,42.9L174.9,2.1h-9.8l-14.9,43.4l-5.8,0.9v2.3H161v-2.3c-4.4-0.5-6.1-1-5-4.4
			c0.2-0.6,1.2-3.9,2.4-6.5h15.9l3.5,10.1l-7,0.8v2.3c0,0,12.8,0,14.3,0h10.3v-2.3l-2.2-0.2C191.2,45.9,189.6,45.9,188.6,42.9z
			 M160.1,30.2c3-8.8,6.5-18.8,6.5-18.8l6.2,18.8H160.1z M235.7,2.1h-17.6v2.5l0.9,0.1c4.9,0.5,5.2,0.4,5.2,4.2v21.6
			c0,7.5-0.4,13.8-10.2,13.8c-8.3,0-10.1-5.3-10.1-13.1V5.5l6.2-0.9V2.1h-23.7v2.5l1.4,0.1c4.9,0.5,5.7,0.4,5.7,4.2v22.9
			c0,10.7,3.8,17.6,19,17.6c16.1,0,16.1-11.5,16.1-17.6V5.5l7-0.9V2.1z M235.6,34.6L235.6,34.6C235.6,34.5,235.6,34.5,235.6,34.6z
			 M259.6,21.3c-8.7-3.4-16.4-4.4-16.4-9.4c0-4.8,5.1-5.6,9.5-5.6c6.8,0,10.4,2,10.3,10.8h1.9c0,0,1.2-14.2,1.2-13.9
			c-3.5-0.9-8.2-2.1-12.9-2.1c-8,0-18.7,2.5-18.7,14c0,6.6,2.3,10.9,8.1,13.2c3.6,1.4,6.7,2.6,8.2,3.1c5.3,1.7,7.9,3.7,7.9,7.1
			c0,3-1.8,6.4-8.4,6.4c-4.5,0-7.5-1.4-8.8-1.9c-3.6-1.5-4-5.8-4-8.1l-1.9-0.2c-0.1,0.8-1,11.2-1,11.5c2.6,1.8,8.7,3.7,15.4,3.7
			c6.5,0,17.5-3.5,17.5-15.2C267.5,27.7,264.3,23.1,259.6,21.3z M269.3,2.1L268,17h1.9c0.9-3.5,0.9-9.7,7.5-9.7h4.9v38.1l-7,0.9v2.3
			h25.5v-2.3l-1.9-0.1c-4.9-0.8-5.1-0.4-5.1-4.2V7.4h4.7c6.6,0,6.7,6.2,7.6,9.7h1.8l-1.3-14.9H269.3z M430.6,43.7
			c-7.7,0-7.7-0.5-7.7-6V5.5l7-0.9V2.1h-23.7v2.5l0.9,0.1c4.9,0.5,5.2,0.4,5.2,4.2v36.6l-5.3,0.9v2.3h34.5l1.4-15.8h-1.8
			C439.6,39.9,437.4,43.7,430.6,43.7z M352.2,43.6c-2.6-13.2-6.3-15.7-12.9-16.9c4.9-0.6,11.5-1.7,11.5-12.2
			c0-9.3-6.7-12.4-18.7-12.4h-23.5v2.5l0.9,0.1c4.9,0.5,5.2,0.4,5.2,4.2v36.6l-6.2,0.9v2.3h23.7v-2.3l-0.9-0.1
			c-4.9-0.5-5.2-0.4-5.2-4.2V29.4h3c4.3,0,6.8,0.2,8.1,2.5c1.5,2.8,2.4,5.9,3.2,10c0.4,1.7,1.1,5.1,1.4,6.8h6.7c2.2,0,7.4,0,7.4,0
			v-2.3C353.5,45.9,352.8,46.3,352.2,43.6z M332.7,24.1h-6.4V6.5h6.4c2.9,0,8.2,1.1,8.2,8.5C340.9,20.8,338.1,24.1,332.7,24.1z
			 M400.1,42.9L386.3,2.1h-9.8l-15.3,43.4l-4.2,0.9v2.3h13.2v-2.3c-2.6,0-5.1-0.4-4.1-3.4c0.2-0.6,1.5-4,2.9-7.5h16.9l3.4,10.1
			l-5.9,0.8v2.3c0,0,22,0,22.9,0v-2.3l-1.7-0.1C403.3,46,401,45.9,400.1,42.9z M370.8,30.2c3.4-8.8,7.2-19.9,7.2-19.9l6.3,19.9
			H370.8z M443.1,4.6l0.9,0.1c4.9,0.5,5.2,0.4,5.2,4.2v36.6l-6.2,0.9v2.3h23.7v-2.3l-0.9-0.1c-4.9-0.5-5.2-0.4-5.2-4.2V5.5l6.2-0.9
			V2.1h-23.7V4.6z M512.4,42.9L498.7,2.1h-9.8l-15.1,43.4l-6,0.9v2.3h17.6v-2.3c-5.3-0.5-6.3-1-5.3-4.4c0.2-0.6,0.9-3.9,2.1-6.5H498
			l3.3,10.1l-7.2,0.8v2.3c0,0,13.1,0,14.6,0h10v-2.3l-2.1-0.2C514.8,45.9,513.4,45.9,512.4,42.9z M483.9,30.2
			c3-8.8,6.5-18.8,6.5-18.8l6.2,18.8H483.9z M550.4,2.1v2.5l1.4,0.1c4.9,0.5,5.7,0.4,5.7,4.2v24L536.8,2.1h-18v2.5l2,0.1
			c4.9,0.8,4.9,0.4,4.9,4.2v36.6l-5.1,0.9v2.3h16.7v-2.3l-0.9-0.1c-4.9-0.5-5.2-0.4-5.2-4.2V12.9l23.5,35.8h7.6V5.5l5.8-0.9V2.1
			H550.4z"/>
	</g>
</g>
</svg>
